<svg width="26" height="29" viewBox="0 0 26 29" fill="none" xmlns="http://www.w3.org/2000/svg">
<g filter="url(#filter0_d_7_180)">
<path d="M16.7549 14.2539H15.9649L15.6849 13.9839C16.6649 12.8439 17.2549 11.3639 17.2549 9.75391C17.2549 6.16391 14.3449 3.25391 10.7549 3.25391C7.16488 3.25391 4.25488 6.16391 4.25488 9.75391C4.25488 13.3439 7.16488 16.2539 10.7549 16.2539C12.3649 16.2539 13.8449 15.6639 14.9849 14.6839L15.2549 14.9639V15.7539L20.2549 20.7439L21.7449 19.2539L16.7549 14.2539ZM10.7549 14.2539C8.26488 14.2539 6.25488 12.2439 6.25488 9.75391C6.25488 7.26391 8.26488 5.25391 10.7549 5.25391C13.2449 5.25391 15.2549 7.26391 15.2549 9.75391C15.2549 12.2439 13.2449 14.2539 10.7549 14.2539Z" fill="#0C0C0C"/>
</g>
<defs>
<filter id="filter0_d_7_180" x="-3" y="0" width="32" height="32" filterUnits="userSpaceOnUse" color-interpolation-filters="sRGB">
<feFlood flood-opacity="0" result="BackgroundImageFix"/>
<feColorMatrix in="SourceAlpha" type="matrix" values="0 0 0 0 0 0 0 0 0 0 0 0 0 0 0 0 0 0 127 0" result="hardAlpha"/>
<feOffset dy="4"/>
<feGaussianBlur stdDeviation="2"/>
<feComposite in2="hardAlpha" operator="out"/>
<feColorMatrix type="matrix" values="0 0 0 0 0 0 0 0 0 0 0 0 0 0 0 0 0 0 0.25 0"/>
<feBlend mode="normal" in2="BackgroundImageFix" result="effect1_dropShadow_7_180"/>
<feBlend mode="normal" in="SourceGraphic" in2="effect1_dropShadow_7_180" result="shape"/>
</filter>
</defs>
</svg>
